<?xml version="1.0" standalone="no"?>
<!DOCTYPE svg PUBLIC "-//W3C//DTD SVG 1.1//EN" "http://www.w3.org/Graphics/SVG/1.1/DTD/svg11.dtd" >
<svg xmlns="http://www.w3.org/2000/svg">
  <defs>
    <font id="Tripdocs" horiz-adv-x="1024">
      <font-face
        font-family="Tripdocs"
        units-per-em="1024"
        ascent="1024"
        descent="0"
      />
      <missing-glyph horiz-adv-x="0"/>
        <glyph
          glyph-name="移动开发平台-sousuof0a55-f"
          unicode="&#xf0a55;"
          horiz-adv-x="1024" d=" M426.667 960C626.962 960 789.333 797.629 789.333 597.333C789.333 512.568 760.253 434.595 711.524 372.846L947.503 136.837L887.163 76.497L651.154 312.476C589.405 263.747 511.432 234.667 426.667 234.667C226.371 234.667 64 397.038 64 597.333C64 797.629 226.371 960 426.667 960zM426.667 874.667C273.5 874.667 149.333 750.5 149.333 597.333C149.333 444.166 273.5 320 426.667 320C579.834 320 704 444.166 704 597.333C704 750.5 579.834 874.667 426.667 874.667z" />
        <glyph
          glyph-name="移动开发平台-zhidingf0a56-f"
          unicode="&#xf0a56;"
          horiz-adv-x="1024" d=" M917.333 917.333L917.333 832L572.352 832L840.837 563.503L780.497 503.163L554.667 729.003L554.667 106.667L469.333 106.667L469.333 729.003L243.503 503.163L183.163 563.503L451.648 832L106.667 832L106.667 917.333L917.333 917.333z" />
        <glyph
          glyph-name="移动开发平台-closef0a6a-f"
          unicode="&#xf0a6a;"
          horiz-adv-x="1024" d=" M801.83 862.17L862.17 801.83L572.326 512.005L862.17 222.17L801.83 161.83L511.995 451.674L222.17 161.83L161.83 222.17L451.665 512.005L161.83 801.83L222.17 862.17L511.995 572.335L801.83 862.17z" />
        <glyph
          glyph-name="移动开发平台-addf0ae7-f"
          unicode="&#xf0ae7;"
          horiz-adv-x="1024" d=" M554.667 896L554.667 554.667L896 554.667L896 469.333L554.667 469.333L554.667 128L469.333 128L469.333 469.333L128 469.333L128 554.667L469.333 554.667L469.333 896L554.667 896z" />
        <glyph
          glyph-name="移动开发平台-uparrowf0ae8-f"
          unicode="&#xf0ae8;"
          horiz-adv-x="1024" d=" M512 891.712L813.699 590.013L753.359 529.673L554.664 728.384L554.667 110.327L469.333 110.327L469.33 728.384L270.641 529.673L210.301 590.013L512 891.712z" />
        <glyph
          glyph-name="移动开发平台-deletef0aeb-f"
          unicode="&#xf0aeb;"
          horiz-adv-x="1024" d=" M960 789.333L960 704L874.667 704L874.667 64L149.333 64L149.333 704L64 704L64 789.333L960 789.333zM789.333 704L234.667 704L234.667 149.333L789.333 149.333L789.333 704zM448 597.333L448 256L362.667 256L362.667 597.333L448 597.333zM661.333 597.333L661.333 256L576 256L576 597.333L661.333 597.333zM661.333 960L661.333 874.667L362.667 874.667L362.667 960L661.333 960z" />
        <glyph
          glyph-name="移动开发平台-duplicatef0aec-f"
          unicode="&#xf0aec;"
          horiz-adv-x="1024" d=" M938.667 768L938.667 85.333L256 85.333L256 768L938.667 768zM853.333 682.667L341.333 682.667L341.333 170.667L853.333 170.667L853.333 682.667zM768 938.667L768 853.333L170.667 853.333L170.667 256L85.333 256L85.333 938.667L768 938.667z" />
        <glyph
          glyph-name="移动开发平台-editf0aed-f"
          unicode="&#xf0aed;"
          horiz-adv-x="1024" d=" M917.333 155.582L917.333 70.248L106.667 70.248L106.667 155.582L917.333 155.582zM624.915 938.667L877.255 686.327L386.588 195.66L134.248 195.66L134.248 448L624.915 938.667zM495.061 688.171L219.582 412.654L219.582 280.994L351.242 280.994L626.731 556.501L495.061 688.171zM624.915 817.987L555.413 748.523L687.083 616.853L756.575 686.327L624.915 817.987z" />
        <glyph
          glyph-name="移动开发平台-informationf0aee-f"
          unicode="&#xf0aee;"
          horiz-adv-x="1024" d=" M512 64C264.576 64 64 264.576 64 512C64 759.424 264.576 960 512 960C759.424 960 960 759.424 960 512C960 264.576 759.424 64 512 64zM512 149.333C712.295 149.333 874.667 311.705 874.667 512C874.667 712.295 712.295 874.667 512 874.667C311.705 874.667 149.333 712.295 149.333 512C149.333 311.705 311.705 149.333 512 149.333zM554.667 618.667L554.667 362.667L618.667 362.667L618.667 277.333L405.333 277.333L405.333 362.667L469.333 362.667L469.333 533.333L405.333 533.333L405.333 618.667L554.667 618.667zM501.333 661.333C471.878 661.333 448 685.211 448 714.667C448 744.122 471.878 768 501.333 768C530.789 768 554.667 744.122 554.667 714.667C554.667 685.211 530.789 661.333 501.333 661.333z" />
        <glyph
          glyph-name="移动开发平台-zoominf0af3-f"
          unicode="&#xf0af3;"
          horiz-adv-x="1024" d=" M512 960C759.424 960 960 759.424 960 512C960 264.576 759.424 64 512 64C264.576 64 64 264.576 64 512C64 759.424 264.576 960 512 960zM512 874.667C311.705 874.667 149.333 712.295 149.333 512C149.333 311.705 311.705 149.333 512 149.333C712.295 149.333 874.667 311.705 874.667 512C874.667 712.295 712.295 874.667 512 874.667zM554.667 746.667L554.645 554.667L746.667 554.667L746.667 469.333L554.645 469.333L554.667 277.333L469.333 277.333L469.312 469.333L277.333 469.333L277.333 554.667L469.312 554.667L469.333 746.667L554.667 746.667z" />
        <glyph
          glyph-name="移动开发平台-zoomoutf0af4-f"
          unicode="&#xf0af4;"
          horiz-adv-x="1024" d=" M512 960C759.424 960 960 759.424 960 512C960 264.576 759.424 64 512 64C264.576 64 64 264.576 64 512C64 759.424 264.576 960 512 960zM512 874.667C311.705 874.667 149.333 712.295 149.333 512C149.333 311.705 311.705 149.333 512 149.333C712.295 149.333 874.667 311.705 874.667 512C874.667 712.295 712.295 874.667 512 874.667zM746.667 554.667L746.667 469.333L277.333 469.333L277.333 554.667L746.667 554.667z" />
        <glyph
          glyph-name="移动开发平台-downarrowf0af5-f"
          unicode="&#xf0af5;"
          horiz-adv-x="1024" d=" M512 110.327L813.699 412.026L753.359 472.366L554.664 273.655L554.667 891.712L469.333 891.712L469.33 273.655L270.641 472.366L210.301 412.026z" />
        <glyph
          glyph-name="移动开发平台-previewclosef0af8-f"
          unicode="&#xf0af8;"
          horiz-adv-x="1024" d=" M893.912 67.66L954.252 128L143.585 938.667L83.245 878.327L229.719 731.887C220.415 724.224 211.226 716.214 202.153 707.871C139.881 650.61 90.781 585.375 55.258 524.68L42.667 503.166L55.225 481.633C90.652 420.891 139.624 355.679 201.854 298.421C295.312 212.43 401.294 161.83 518.76 161.83C596.652 161.83 669.554 184.191 737.152 224.443L893.912 67.66zM982.242 481.629L994.847 503.175L982.242 524.721C946.747 585.39 897.629 650.648 835.353 707.905C741.828 793.893 635.941 844.497 518.76 844.497C471.396 844.497 425.876 836.227 382.271 820.694L451.194 751.793C473.31 756.656 495.838 759.163 518.76 759.163C611.924 759.163 698.549 717.765 777.598 645.087C825.518 601.028 865.184 550.913 895.456 503.175C872.266 466.603 843.567 428.639 809.868 393.071L870.255 332.725C916.251 380.952 953.659 432.775 982.242 481.629zM529.446 673.5L689.085 513.862C683.782 599.597 615.181 668.198 529.446 673.5zM518.76 247.163C425.299 247.163 338.605 288.555 259.634 361.217C211.765 405.262 172.217 455.331 142.021 503.092C172.313 550.86 211.978 600.98 259.913 645.057C269.947 654.284 280.104 663.007 290.38 671.206L371.712 589.861C356.697 564.453 348.082 534.814 348.082 503.163C348.082 408.907 424.492 332.497 518.748 332.497C550.406 332.497 580.051 341.116 605.463 356.137L674.425 287.162C624.883 261.159 572.927 247.163 518.76 247.163zM518.748 417.83C471.62 417.83 433.415 456.035 433.415 503.163C433.415 510.814 434.422 518.229 436.31 525.283L540.868 420.725C533.814 418.837 526.399 417.83 518.748 417.83z" />
        <glyph
          glyph-name="移动开发平台-repealf0af9-f"
          unicode="&#xf0af9;"
          horiz-adv-x="1024" d=" M106.667 917.333L106.667 618.667L405.333 618.667L287.719 736.299L291.733 740.23C417.08 859.739 615.588 857.928 738.718 734.798C863.686 609.83 863.686 407.217 738.718 282.25C613.75 157.282 411.138 157.282 286.17 282.25L225.83 221.91C384.123 63.617 640.765 63.617 799.058 221.91C957.351 380.202 957.351 636.845 799.058 795.138C641.274 952.922 385.769 953.429 227.358 796.657L106.667 917.333z" />
        <glyph
          glyph-name="移动开发平台-file_textf0afa-f"
          unicode="&#xf0afa;"
          horiz-adv-x="1024" d=" M692.676 960L874.667 729.479L874.667 64L149.333 64L149.333 960L692.676 960zM597.333 874.667L234.667 874.667L234.667 149.333L789.333 149.333L789.333 640L597.333 640L597.333 874.667zM533.333 320L533.333 234.667L320 234.667L320 320L533.333 320zM661.333 490.667L661.333 405.333L320 405.333L320 490.667L661.333 490.667zM682.667 834.965L682.667 725.333L769.216 725.333L682.667 834.965z" />
        <glyph
          glyph-name="移动开发平台-redof0afb-f"
          unicode="&#xf0afb;"
          horiz-adv-x="1024" d=" M917.777 917.333L917.777 618.667L619.111 618.667L736.725 736.299L732.711 740.23C607.364 859.739 408.856 857.928 285.726 734.798C160.758 609.83 160.758 407.217 285.726 282.25C410.694 157.282 613.306 157.282 738.274 282.25L798.614 221.91C640.321 63.617 383.679 63.617 225.386 221.91C67.094 380.202 67.094 636.845 225.386 795.138C383.17 952.922 638.675 953.429 797.086 796.657L917.777 917.333z" />
        <glyph
          glyph-name="移动开发平台-removef0afc-f"
          unicode="&#xf0afc;"
          horiz-adv-x="1024" d=" M512 960C759.424 960 960 759.424 960 512C960 264.576 759.424 64 512 64C264.576 64 64 264.576 64 512C64 759.424 264.576 960 512 960zM512 874.667C311.705 874.667 149.333 712.295 149.333 512C149.333 311.705 311.705 149.333 512 149.333C712.295 149.333 874.667 311.705 874.667 512C874.667 712.295 712.295 874.667 512 874.667zM647.765 708.104L708.104 647.765L572.352 512L708.104 376.235L647.765 315.896L512 451.648L376.235 315.896L315.896 376.235L451.648 512L315.896 647.765L376.235 708.104L512 572.352L647.765 708.104z" />
        <glyph
          glyph-name="移动开发平台-historyf0afd-f"
          unicode="&#xf0afd;"
          horiz-adv-x="1024" d=" M661.333 704C838.064 704 981.333 560.731 981.333 384C981.333 207.269 838.064 64 661.333 64C484.602 64 341.333 207.269 341.333 384C341.333 560.731 484.602 704 661.333 704zM661.333 618.667C531.731 618.667 426.667 513.603 426.667 384C426.667 254.397 531.731 149.333 661.333 149.333C790.936 149.333 896 254.397 896 384C896 513.603 790.936 618.667 661.333 618.667zM277.333 234.667L277.333 149.333L64 149.333L64 234.667L277.333 234.667zM704 533.333L704 405.355L810.667 405.333L810.667 320L704 320.021L704 320L618.667 320L618.667 533.333L704 533.333zM277.333 554.667L277.333 469.333L64 469.333L64 554.667L277.333 554.667zM917.333 874.667L917.333 789.333L64 789.333L64 874.667L917.333 874.667z" />
        <glyph
          glyph-name="移动开发平台-warningf0afe-f"
          unicode="&#xf0afe;"
          horiz-adv-x="1024" d=" M512 960C759.424 960 960 759.424 960 512C960 264.576 759.424 64 512 64C264.576 64 64 264.576 64 512C64 759.424 264.576 960 512 960zM512 874.667C311.705 874.667 149.333 712.295 149.333 512C149.333 311.705 311.705 149.333 512 149.333C712.295 149.333 874.667 311.705 874.667 512C874.667 712.295 712.295 874.667 512 874.667zM512 341.333C535.564 341.333 554.667 322.231 554.667 298.667C554.667 275.103 535.564 256 512 256C488.436 256 469.333 275.103 469.333 298.667C469.333 322.231 488.436 341.333 512 341.333zM554.667 746.667L554.667 405.333L469.333 405.333L469.333 746.667L554.667 746.667z" />
        <glyph
          glyph-name="移动开发平台-moref0aff-f"
          unicode="&#xf0aff;"
          horiz-adv-x="1024" d=" M277.333 576L277.333 448L149.333 448L149.333 576L277.333 576zM576 576L576 448L448 448L448 576L576 576zM874.667 576L874.667 448L746.667 448L746.667 576L874.667 576z" />
        <glyph
          glyph-name="移动开发平台-photof0b00-f"
          unicode="&#xf0b00;"
          horiz-adv-x="1024" d=" M938.667 896L938.667 128L85.333 128L85.333 896L938.667 896zM853.333 810.667L170.667 810.667L170.667 213.333L323.627 213.333L679.5 569.173L853.333 430.101L853.333 810.667zM685.824 454.827L444.331 213.333L853.333 213.333L853.333 320.832L685.824 454.827zM362.667 746.667C433.359 746.667 490.667 689.359 490.667 618.667C490.667 547.974 433.359 490.667 362.667 490.667C291.974 490.667 234.667 547.974 234.667 618.667C234.667 689.359 291.974 746.667 362.667 746.667zM362.667 661.333C339.103 661.333 320 642.231 320 618.667C320 595.103 339.103 576 362.667 576C386.231 576 405.333 595.103 405.333 618.667C405.333 642.231 386.231 661.333 362.667 661.333z" />
        <glyph
          glyph-name="移动开发平台-listf0b01-f"
          unicode="&#xf0b01;"
          horiz-adv-x="1024" d=" M512 960C549.911 960 583.972 943.519 607.41 917.331L704 917.333L704 853.333L874.667 853.333L874.667 64L149.333 64L149.333 853.333L320 853.333L320 917.333L416.59 917.331C440.028 943.519 474.089 960 512 960zM320 768L234.667 768L234.667 149.333L789.333 149.333L789.333 768L704 768L704 704L320 704L320 768zM704 384L704 298.667L320 298.667L320 384L704 384zM704 554.667L704 469.333L320 469.333L320 554.667L704 554.667zM512 874.667C488.436 874.667 469.333 855.564 469.333 832L405.333 832L405.333 789.333L618.667 789.333L618.667 832L554.667 832C554.667 855.564 535.564 874.667 512 874.667z" />
        <glyph
          glyph-name="移动开发平台-exportf0b02-f"
          unicode="&#xf0b02;"
          horiz-adv-x="1024" d=" M298.667 640L298.667 554.667L213.333 554.667L213.333 170.667L810.667 170.667L810.667 554.667L725.333 554.667L725.333 640L896 640L896 85.333L128 85.333L128 640L298.667 640zM512 938.667L712.837 737.83L652.497 677.49L554.667 775.296L554.667 256L469.333 256L469.333 775.339L371.503 677.49L311.163 737.83L512 938.667z" />
        <glyph
          glyph-name="移动开发平台-importf0b03-f"
          unicode="&#xf0b03;"
          horiz-adv-x="1024" d=" M298.667 640L298.667 554.667L213.333 554.667L213.333 170.667L810.667 170.667L810.667 554.667L725.333 554.667L725.333 640L896 640L896 85.333L128 85.333L128 640L298.667 640zM554.667 938.667L554.667 419.371L652.497 517.176L712.837 456.837L512 256L311.163 456.837L371.503 517.176L469.333 419.371L469.333 938.667L554.667 938.667z" />
        <glyph
          glyph-name="移动开发平台-sharef0b04-f"
          unicode="&#xf0b04;"
          horiz-adv-x="1024" d=" M486.221 460.639C525.073 460.639 563.472 456.924 601.045 449.605L635.554 442.883L635.554 341.333L869.427 545.973L635.554 750.612L635.554 632.275L597.757 627.932C446.066 610.505 312.902 526.216 230.871 403.469C309.541 440.711 396.366 460.639 486.221 460.639zM486.221 375.306C363.371 375.306 247.324 331.947 155.518 254.192L42.667 158.612L87.262 299.616C153.976 510.558 332.975 667.913 550.221 707.132L550.221 938.667L999.014 545.973L550.221 153.278L550.221 371.349C529.121 373.978 507.761 375.306 486.221 375.306z" />
        <glyph
          glyph-name="移动开发平台-clearf0b05-f"
          unicode="&#xf0b05;"
          horiz-adv-x="1024" d=" M640 938.667L640 725.333L960 725.333L960 469.333L874.667 469.333L874.667 85.333L149.333 85.333L149.333 469.333L64 469.333L64 725.333L384 725.333L384 938.667L640 938.667zM789.333 469.333L234.667 469.333L234.667 170.667L341.333 170.667L341.333 341.333L426.667 341.333L426.667 170.667L597.333 170.667L597.333 341.333L682.667 341.333L682.667 170.667L789.333 170.667L789.333 469.333zM874.667 640L149.333 640L149.333 554.667L874.667 554.667L874.667 640zM554.667 853.333L469.333 853.333L469.333 725.333L554.667 725.333L554.667 853.333z" />
        <glyph
          glyph-name="移动开发平台-minus_squraf0b06-f"
          unicode="&#xf0b06;"
          horiz-adv-x="1024" d=" M917.333 917.333L917.333 106.667L106.667 106.667L106.667 917.333L917.333 917.333zM832 832L192 832L192 192L832 192L832 832zM746.667 554.667L746.667 469.333L277.333 469.333L277.333 554.667L746.667 554.667z" />
        <glyph
          glyph-name="移动开发平台-plus_squraf0b07-f"
          unicode="&#xf0b07;"
          horiz-adv-x="1024" d=" M917.333 917.333L917.333 106.667L106.667 106.667L106.667 917.333L917.333 917.333zM832 832L192 832L192 192L832 192L832 832zM554.667 746.667L554.645 554.667L746.667 554.667L746.667 469.333L554.645 469.333L554.667 277.333L469.333 277.333L469.312 469.333L277.333 469.333L277.333 554.667L469.312 554.667L469.333 746.667L554.667 746.667z" />
        <glyph
          glyph-name="移动开发平台-helpf0b08-f"
          unicode="&#xf0b08;"
          horiz-adv-x="1024" d=" M512 960C759.424 960 960 759.424 960 512C960 264.576 759.424 64 512 64C264.576 64 64 264.576 64 512C64 759.424 264.576 960 512 960zM512 874.667C311.705 874.667 149.333 712.295 149.333 512C149.333 311.705 311.705 149.333 512 149.333C712.295 149.333 874.667 311.705 874.667 512C874.667 712.295 712.295 874.667 512 874.667zM512 320C535.564 320 554.667 300.897 554.667 277.333C554.667 253.769 535.564 234.667 512 234.667C488.436 234.667 469.333 253.769 469.333 277.333C469.333 300.897 488.436 320 512 320zM512 768C606.257 768 682.667 691.59 682.667 597.333C682.667 522.534 634.119 457.129 563.186 434.493C557.599 432.823 554.667 429.193 554.667 421.818L554.667 362.667L469.333 362.667L469.333 421.818C469.333 468.347 498.258 504.148 537.99 516.018C573.044 527.208 597.333 559.931 597.333 597.333C597.333 644.462 559.128 682.667 512 682.667C464.872 682.667 426.667 644.462 426.667 597.333L341.333 597.333C341.333 691.59 417.743 768 512 768z" />
        <glyph
          glyph-name="移动开发平台-preview_openf0b09-f"
          unicode="&#xf0b09;"
          horiz-adv-x="1024" d=" M512.012 853.333C629.193 853.333 735.081 802.725 828.606 716.729C890.88 659.469 939.994 594.212 975.494 533.534L975.494 533.534L988.099 511.988L975.494 490.443C939.999 429.773 890.88 364.515 828.605 307.258C735.08 221.27 629.192 170.667 512.012 170.667C394.83 170.667 288.94 221.283 195.405 307.293C133.133 364.554 84.033 429.789 48.51 490.483L48.51 490.483L35.918 511.998L48.477 533.531C83.904 594.273 132.876 659.484 195.106 716.742C288.564 802.733 394.545 853.333 512.012 853.333zM512.012 768C418.551 768 331.857 726.609 252.885 653.946C208.096 612.735 170.591 566.25 141.217 521.316L141.217 521.316L135.275 512.085L141.245 502.811C168.444 461.327 202.581 418.492 242.944 379.714L242.944 379.714L253.164 370.106C332.223 297.409 418.851 256 512.012 256C605.176 256 691.801 297.398 770.85 370.076C815.695 411.308 853.312 457.844 882.765 502.772L882.765 502.772L888.683 512L882.762 521.209C855.573 562.686 821.432 605.529 781.068 644.307L781.068 644.307L770.848 653.913C691.799 726.598 605.175 768 512.012 768zM512 682.667C606.257 682.667 682.667 606.257 682.667 512C682.667 417.743 606.257 341.333 512 341.333C417.743 341.333 341.333 417.743 341.333 512C341.333 606.257 417.743 682.667 512 682.667zM512 597.333C464.872 597.333 426.667 559.128 426.667 512C426.667 464.872 464.872 426.667 512 426.667C559.128 426.667 597.333 464.872 597.333 512C597.333 559.128 559.128 597.333 512 597.333z" />
        <glyph
          glyph-name="移动开发平台-read_onlyf0b0a-f"
          unicode="&#xf0b0a;"
          horiz-adv-x="1024" d=" M682.667 469.333C806.646 469.333 904.466 405.807 972.122 283.786L976.311 276.083L987.026 256L976.311 235.917C908.53 108.867 809.229 42.667 682.667 42.667C558.687 42.667 460.868 106.193 393.211 228.214L389.022 235.917L378.308 256L389.022 276.083C456.803 403.133 556.104 469.333 682.667 469.333zM692.676 960L874.667 729.479L874.667 533.333L789.333 533.333L789.333 640L597.333 640L597.333 874.667L234.667 874.667L234.667 149.333L362.667 149.333L362.667 64L149.333 64L149.333 960L692.676 960zM682.667 384C598.533 384 532.265 345.37 480.748 264.193L476.368 257.131L475.669 256.021L480.754 247.796C529.357 171.217 591.089 132.505 668.564 128.371L675.874 128.085L682.667 128C766.801 128 833.068 166.63 884.586 247.807L888.965 254.869L889.643 256.021L884.579 264.204C835.976 340.783 774.245 379.495 696.769 383.629L689.459 383.915L682.667 384zM682.667 320C718.013 320 746.667 291.346 746.667 256C746.667 220.654 718.013 192 682.667 192C647.32 192 618.667 220.654 618.667 256C618.667 291.346 647.32 320 682.667 320zM682.667 834.965L682.667 725.333L769.216 725.333L682.667 834.965z" />
        <glyph
          glyph-name="移动开发平台-flle_addf0b0b-f"
          unicode="&#xf0b0b;"
          horiz-adv-x="1024" d=" M874.667 64L149.333 64L149.333 960L692.676 960L874.667 729.479L874.667 64zM597.333 874.667L234.667 874.667L234.667 149.333L789.333 149.333L789.333 640L597.333 640L597.333 874.667zM554.667 576L554.645 469.333L661.333 469.333L661.333 384L554.645 384L554.667 277.333L469.333 277.333L469.312 384L362.667 384L362.667 469.333L469.312 469.333L469.333 576L554.667 576zM769.216 725.333L682.667 834.965L682.667 725.333L769.216 725.333z" />
        <glyph
          glyph-name="移动开发平台-menuf0b0c-f"
          unicode="&#xf0b0c;"
          horiz-adv-x="1024" d=" M917.333 277.333L917.333 192L106.667 192L106.667 277.333L917.333 277.333zM917.333 554.667L917.333 469.333L106.667 469.333L106.667 554.667L917.333 554.667zM917.333 832L917.333 746.667L106.667 746.667L106.667 832L917.333 832z" />
        <glyph
          glyph-name="移动开发平台-minef0b0d-f"
          unicode="&#xf0b0d;"
          horiz-adv-x="1024" d=" M678.902 448C810.584 448 917.333 352.487 917.333 234.667L917.333 64L106.667 64L106.667 234.667C106.667 352.487 213.416 448 345.098 448L678.902 448zM684.308 362.667L339.692 362.667C258.124 362.667 192 305.359 192 234.667L192 149.333L832 149.333L832 234.667C832 305.359 765.876 362.667 684.308 362.667zM512 938.667C629.821 938.667 725.333 843.154 725.333 725.333C725.333 607.513 629.821 512 512 512C394.179 512 298.667 607.513 298.667 725.333C298.667 843.154 394.179 938.667 512 938.667zM512 853.333C441.308 853.333 384 796.026 384 725.333C384 654.641 441.308 597.333 512 597.333C582.692 597.333 640 654.641 640 725.333C640 796.026 582.692 853.333 512 853.333z" />
        <glyph
          glyph-name="移动开发平台-homef0b0e-f"
          unicode="&#xf0b0e;"
          horiz-adv-x="1024" d=" M512 960L917.333 588.212L917.333 48.77L106.667 48.77L106.667 588.212L512 960zM512 844.206L192 550.689L192 134.103L832 134.103L832 550.689L512 844.206zM661.333 347.437L661.333 262.103L362.667 262.103L362.667 347.437L661.333 347.437z" />
        <glyph
          glyph-name="移动开发平台-findf0b1c-f"
          unicode="&#xf0b1c;"
          horiz-adv-x="1024" d=" M320 234.665L320 149.331L85.333 149.331L85.333 234.665L320 234.665zM672 703.998C795.711 703.998 896 603.709 896 479.998C896 428.035 878.306 380.205 848.615 342.203L968.945 220.982L908.389 160.859L784.108 286.028C751.136 266.93 712.844 255.998 672 255.998C548.289 255.998 448 356.287 448 479.998C448 603.709 548.289 703.998 672 703.998zM672 618.665C595.417 618.665 533.333 556.581 533.333 479.998C533.333 403.415 595.417 341.331 672 341.331C748.583 341.331 810.667 403.415 810.667 479.998C810.667 556.581 748.583 618.665 672 618.665zM320 575.998L320 490.665L85.333 490.665L85.333 575.998L320 575.998zM938.667 917.331L938.667 831.997L85.333 831.997L85.333 917.331L938.667 917.331z" />
        <glyph
          glyph-name="移动开发平台-right_arrowf0b0f-f"
          unicode="&#xf0b0f;"
          horiz-adv-x="1024" d=" M615.634 811.555L555.295 751.215L751.851 554.68L130.144 554.667L130.144 469.333L756.16 469.347L555.295 268.497L615.634 208.157L917.333 509.856z" />
        <glyph
          glyph-name="移动开发平台-left_arrowf0b10-f"
          unicode="&#xf0b10;"
          horiz-adv-x="1024" d=" M410.51 811.555L470.849 751.215L274.293 554.68L896 554.667L896 469.333L269.984 469.347L470.849 268.497L410.51 208.157L108.811 509.856z" />
        <glyph
          glyph-name="移动开发平台-drop_downf0b11-f"
          unicode="&#xf0b11;"
          horiz-adv-x="1024" d=" M753.359 660.705L512 419.346L270.641 660.705L210.301 600.366L512 298.667L813.699 600.366z" />
        <glyph
          glyph-name="移动开发平台-drop_rightf0b12-f"
          unicode="&#xf0b12;"
          horiz-adv-x="1024" d=" M300.811 208.157L602.51 509.856L300.811 811.555L361.151 871.895L723.189 509.856L361.151 147.817z" />
        <glyph
          glyph-name="移动开发平台-drop_leftf0b13-f"
          unicode="&#xf0b13;"
          horiz-adv-x="1024" d=" M723.189 811.555L421.49 509.856L723.189 208.157L662.849 147.817L300.811 509.856L662.849 871.895z" />
        <glyph
          glyph-name="移动开发平台-drop_rightt2f0b14-f"
          unicode="&#xf0b14;"
          horiz-adv-x="1024" d=" M263.32 799.058L565.019 497.359L263.32 195.66L202.981 256L444.34 497.359L202.981 738.718L263.32 799.058zM519.32 799.058L821.019 497.359L519.32 195.66L458.981 256L700.34 497.359L458.981 738.718L519.32 799.058z" />
        <glyph
          glyph-name="移动开发平台-drop_left2f0b15-f"
          unicode="&#xf0b15;"
          horiz-adv-x="1024" d=" M760.68 799.058L458.981 497.359L760.68 195.66L821.019 256L579.66 497.359L821.019 738.718L760.68 799.058zM504.68 799.058L202.981 497.359L504.68 195.66L565.019 256L323.66 497.359L565.019 738.718L504.68 799.058z" />
        <glyph
          glyph-name="移动开发平台-sortf0b16-f"
          unicode="&#xf0b16;"
          horiz-adv-x="1024" d=" M723.189 434.875L783.529 374.535L512 103.006L240.471 374.535L300.811 434.875L512 223.686L723.189 434.875zM512 913.045L783.529 641.516L723.189 581.176L512 792.366L300.811 581.176L240.471 641.516L512 913.045z" />
        <glyph
          glyph-name="移动开发平台-drop_upf0b17-f"
          unicode="&#xf0b17;"
          horiz-adv-x="1024" d=" M753.359 359.006L512 600.366L270.641 359.006L210.301 419.346L512 721.045L813.699 419.346L753.359 359.006z" />
        <glyph
          glyph-name="移动开发平台-upper_rightf0b18-f"
          unicode="&#xf0b18;"
          horiz-adv-x="1024" d=" M795.804 795.49L795.804 368.823L710.47 368.823L710.481 649.832L258.366 197.712L198.026 258.052L650.141 710.171L369.137 710.156L369.137 795.49z" />
        <glyph
          glyph-name="移动开发平台-lower_rightf0b19-f"
          unicode="&#xf0b19;"
          horiz-adv-x="1024" d=" M823.608 200.392L396.941 200.392L396.941 285.726L677.949 285.715L225.83 737.83L286.17 798.17L738.289 346.055L738.274 627.059L823.608 627.059z" />
        <glyph
          glyph-name="移动开发平台-lower_leftf0b1a-f"
          unicode="&#xf0b1a;"
          horiz-adv-x="1024" d=" M228.196 227.882L654.863 227.882L654.863 313.216L373.854 313.205L825.974 765.32L765.634 825.66L313.515 373.545L313.53 654.549L228.196 654.549z" />
        <glyph
          glyph-name="移动开发平台-upper_leftf0b1b-f"
          unicode="&#xf0b1b;"
          horiz-adv-x="1024" d=" M228.196 795.49L654.863 795.49L654.863 710.156L373.854 710.167L825.974 258.052L765.634 197.712L313.515 649.827L313.53 368.823L228.196 368.823z" />
        <glyph
          glyph-name="移动开发平台-cutf0b1d-f"
          unicode="&#xf0b1d;"
          horiz-adv-x="1024" d=" M179.503 938.667L665.77 452.381C695.371 471.036 730.425 481.83 768 481.83C874.039 481.83 960 395.869 960 289.83C960 183.791 874.039 97.83 768 97.83C661.961 97.83 576 183.791 576 289.83C576 327.396 586.788 362.442 605.436 392.039L512 485.483L418.564 392.039C436.272 363.934 446.892 330.915 447.918 295.491L448 289.83C448 183.791 362.039 97.83 256 97.83C149.961 97.83 64 183.791 64 289.83C64 395.869 149.961 481.83 256 481.83C293.575 481.83 328.629 471.036 358.23 452.381L451.648 545.835L119.163 878.327L179.503 938.667zM256 396.497C197.09 396.497 149.333 348.74 149.333 289.83C149.333 230.92 197.09 183.163 256 183.163C314.91 183.163 362.667 230.92 362.667 289.83C362.667 348.74 314.91 396.497 256 396.497zM768 396.497C709.09 396.497 661.333 348.74 661.333 289.83C661.333 230.92 709.09 183.163 768 183.163C826.91 183.163 874.667 230.92 874.667 289.83C874.667 348.74 826.91 396.497 768 396.497zM844.497 938.667L904.837 878.327L627.503 600.994L567.163 661.333L844.497 938.667z" />
        <glyph
          glyph-name="移动开发平台-cropf0b1e-f"
          unicode="&#xf0b1e;"
          horiz-adv-x="1024" d=" M192 192L192 746.667L64 746.667L64 832L192 832L192 960L277.333 960L277.333 277.333L960 277.333L960 192L832 192L832 64L746.667 64L746.667 192L192 192zM832 832L832 362.667L746.667 362.667L746.667 746.667L362.667 746.667L362.667 832L832 832z" />
        <glyph
          glyph-name="移动开发平台-comment_addf0b1f-f"
          unicode="&#xf0b1f;"
          horiz-adv-x="1024" d=" M960 874.667L960 213.333L661.333 213.333L512 64L362.667 213.333L64 213.333L64 874.667L960 874.667zM874.667 789.333L149.333 789.333L149.333 298.667L398.013 298.667L512 184.683L625.987 298.667L874.667 298.667L874.667 789.333zM554.667 682.667L554.667 576L661.333 576L661.333 490.667L554.667 490.667L554.667 384L469.333 384L469.333 490.667L362.667 490.667L362.667 576L469.333 576L469.333 682.667L554.667 682.667z" />
        <glyph
          glyph-name="移动开发平台-comment_deletef0b20-f"
          unicode="&#xf0b20;"
          horiz-adv-x="1024" d=" M960 874.667L960 213.333L661.333 213.333L512 64L362.667 213.333L64 213.333L64 874.667L960 874.667zM874.667 789.333L149.333 789.333L149.333 298.667L398.013 298.667L512 184.683L625.987 298.667L874.667 298.667L874.667 789.333zM609.83 691.503L670.17 631.163L572.326 533.338L670.17 435.503L609.83 375.163L511.995 473.007L414.17 375.163L353.83 435.503L451.665 533.338L353.83 631.163L414.17 691.503L511.995 593.669L609.83 691.503z" />
        <glyph
          glyph-name="移动开发平台-commenttextf0b21-f"
          unicode="&#xf0b21;"
          horiz-adv-x="1024" d=" M960 874.667L960 213.333L661.333 213.333L512 64L362.667 213.333L64 213.333L64 874.667L960 874.667zM874.667 789.333L149.333 789.333L149.333 298.667L398.013 298.667L512 184.683L625.987 298.667L874.667 298.667L874.667 789.333zM512 512L512 426.667L298.667 426.667L298.667 512L512 512zM725.333 682.667L725.333 597.333L298.667 597.333L298.667 682.667L725.333 682.667z" />
        <glyph
          glyph-name="移动开发平台-comment_questionf0b22-f"
          unicode="&#xf0b22;"
          horiz-adv-x="1024" d=" M960 874.667L960 213.333L661.333 213.333L512 64L362.667 213.333L64 213.333L64 874.667L960 874.667zM874.667 789.333L149.333 789.333L149.333 298.667L398.013 298.667L512 184.683L625.987 298.667L874.667 298.667L874.667 789.333zM554.667 384L554.667 298.667L469.333 298.667L469.333 384L554.667 384zM512 746.667C590.547 746.667 654.222 682.992 654.222 604.444C654.222 542.863 615.083 490.422 560.323 470.642L554.667 468.736L554.667 426.667L469.333 426.667L469.333 504.889C469.333 527.382 486.739 545.81 508.816 547.439L512 547.556C543.419 547.556 568.889 573.026 568.889 604.444C568.889 635.863 543.419 661.333 512 661.333C481.79 661.333 457.079 637.785 455.223 608.042L455.111 604.444L369.778 604.444C369.778 682.992 433.453 746.667 512 746.667z" />
        <glyph
          glyph-name="移动开发平台-commentprocessingf0b23-f"
          unicode="&#xf0b23;"
          horiz-adv-x="1024" d=" M960 874.667L960 213.333L661.333 213.333L512 64L362.667 213.333L64 213.333L64 874.667L960 874.667zM874.667 789.333L149.333 789.333L149.333 298.667L398.013 298.667L512 184.683L625.987 298.667L874.667 298.667L874.667 789.333zM554.667 576L554.667 490.667L469.333 490.667L469.333 576L554.667 576zM384 576L384 490.667L298.667 490.667L298.667 576L384 576zM725.333 576L725.333 490.667L640 490.667L640 576L725.333 576z" />
        <glyph
          glyph-name="移动开发平台-comment_singlef0b24-f"
          unicode="&#xf0b24;"
          horiz-adv-x="1024" d=" M960 874.667L960 213.333L661.333 213.333L512 64L362.667 213.333L64 213.333L64 874.667L960 874.667zM874.667 789.333L149.333 789.333L149.333 298.667L398.013 298.667L512 184.683L625.987 298.667L874.667 298.667L874.667 789.333z" />
        <glyph
          glyph-name="移动开发平台-comment_multiplef0b25-f"
          unicode="&#xf0b25;"
          horiz-adv-x="1024" d=" M960 768L960 213.333L746.667 213.333L597.333 64L448 213.333L234.667 213.333L234.667 768L960 768zM874.667 682.667L320 682.667L320 298.667L483.346 298.667L597.333 184.683L711.32 298.667L874.667 298.667L874.667 682.667zM789.333 917.333L789.333 832L149.333 832L149.333 384L64 384L64 917.333L789.333 917.333z" />
        <glyph
          glyph-name="移动开发平台-commentcheckf0b26-f"
          unicode="&#xf0b26;"
          horiz-adv-x="1024" d=" M960 874.667L960 213.333L661.333 213.333L512 64L362.667 213.333L64 213.333L64 874.667L960 874.667zM874.667 789.333L149.333 789.333L149.333 298.667L398.013 298.667L512 184.683L625.987 298.667L874.667 298.667L874.667 789.333zM652.497 670.17L712.837 609.83L469.333 366.327L311.163 524.497L371.503 584.837L469.333 487.019L652.497 670.17z" />
        <glyph
          glyph-name="移动开发平台-no_borderf0b27-f"
          unicode="&#xf0b27;"
          horiz-adv-x="1024" d=" M256 170.667L85.333 170.667L85.333 85.333L256 85.333L256 170.667zM426.667 170.667L341.333 170.667L341.333 85.333L426.667 85.333L426.667 170.667zM597.333 170.667L512 170.667L512 85.333L597.333 85.333L597.333 170.667zM768 170.667L682.667 170.667L682.667 85.333L768 85.333L768 170.667zM938.667 85.333L938.667 256L853.333 256L853.333 85.333L938.667 85.333zM170.667 341.333L85.333 341.333L85.333 256L170.667 256L170.667 341.333zM938.667 426.667L853.333 426.667L853.333 341.333L938.667 341.333L938.667 426.667zM170.667 512L85.333 512L85.333 426.667L170.667 426.667L170.667 512zM938.667 597.333L853.333 597.333L853.333 512L938.667 512L938.667 597.333zM170.667 682.667L85.333 682.667L85.333 597.333L170.667 597.333L170.667 682.667zM938.667 768L853.333 768L853.333 682.667L938.667 682.667L938.667 768zM85.333 938.667L85.333 768L170.667 768L170.667 938.667L85.333 938.667zM341.333 938.667L256 938.667L256 853.333L341.333 853.333L341.333 938.667zM512 938.667L426.667 938.667L426.667 853.333L512 853.333L512 938.667zM682.667 938.667L597.333 938.667L597.333 853.333L682.667 853.333L682.667 938.667zM938.667 938.667L768 938.667L768 853.333L938.667 853.333L938.667 938.667z" />
        <glyph
          glyph-name="移动开发平台-pastef0b28-f"
          unicode="&#xf0b28;"
          horiz-adv-x="1024" d=" M469.333 960C507.244 960 541.305 943.519 564.743 917.331L661.333 917.333L661.333 853.333L832 853.333L832 704L746.667 704L746.667 768L661.333 768L661.333 704L277.333 704L277.333 768L192 768L192 149.333L277.333 149.333L277.333 64L106.667 64L106.667 853.333L277.333 853.333L277.333 917.333L373.924 917.331C397.361 943.519 431.423 960 469.333 960zM917.333 618.667L917.333 64L362.667 64L362.667 618.667L917.333 618.667zM832 533.333L448 533.333L448 149.333L832 149.333L832 533.333zM469.333 874.667C445.769 874.667 426.667 855.564 426.667 832L362.667 832L362.667 789.333L576 789.333L576 832L512 832C512 855.564 492.897 874.667 469.333 874.667z" />
        <glyph
          glyph-name="移动开发平台-filewordf0b29-f"
          unicode="&#xf0b29;"
          horiz-adv-x="1024" d=" M692.676 960L874.667 729.479L874.667 320L789.333 320L789.333 640L597.333 640L597.333 874.667L234.667 874.667L234.667 149.333L448 149.333L448 64L149.333 64L149.333 960L692.676 960zM597.333 234.667C631.417 234.667 659.278 208.023 661.225 174.427L661.333 170.667L661.333 128C661.333 93.916 634.69 66.055 601.094 64.109L597.333 64L533.333 64L533.333 234.667L597.333 234.667zM746.667 234.667C780.751 234.667 808.611 208.023 810.558 174.427L810.667 170.667L810.667 128C810.667 92.654 782.013 64 746.667 64C712.583 64 684.722 90.644 682.775 124.24L682.667 128L682.667 170.667C682.667 206.013 711.32 234.667 746.667 234.667zM896 234.667C918.474 234.667 938.242 223.083 949.66 205.56L915.296 179.777C911.879 187.002 904.523 192 896 192C885.06 192 876.043 183.764 874.81 173.155L874.667 170.667L874.667 128C874.667 116.218 884.218 106.667 896 106.667C904.515 106.667 911.864 111.655 915.286 118.869L949.66 93.106C938.242 75.584 918.474 64 896 64C861.916 64 834.055 90.644 832.109 124.24L832 128L832 170.667C832 206.013 860.654 234.667 896 234.667zM597.333 192L576 192L576 106.667L597.333 106.667C608.274 106.667 617.291 114.902 618.523 125.512L618.667 128L618.667 170.667C618.667 182.449 609.115 192 597.333 192zM746.667 192C735.726 192 726.709 183.764 725.477 173.155L725.333 170.667L725.333 128C725.333 116.218 734.885 106.667 746.667 106.667C757.607 106.667 766.624 114.902 767.856 125.512L768 128L768 170.667C768 182.449 758.449 192 746.667 192zM682.667 834.965L682.667 725.333L769.216 725.333L682.667 834.965z" />
        <glyph
          glyph-name="移动开发平台-add_linkf0b2a-f"
          unicode="&#xf0b2a;"
          horiz-adv-x="1024" d=" M293.934 623.399L354.274 563.059L215.608 424.392C155.686 364.471 155.686 267.32 215.608 207.399C274.167 148.84 368.283 147.509 428.459 203.406L432.601 207.399L571.268 346.066L631.608 285.726L492.941 147.059C399.695 53.813 248.514 53.813 155.268 147.059C63.63 238.697 62.05 386.29 150.528 479.858L155.268 484.732L293.934 623.399zM613.934 666.066L674.274 605.726L418.274 349.726L357.934 410.066L613.934 666.066zM876.941 868.732C968.579 777.094 970.159 629.501 881.681 535.933L876.941 531.059L738.274 392.392L677.934 452.732L816.601 591.399C876.522 651.32 876.522 748.471 816.601 808.392C758.042 866.952 663.925 868.283 603.75 812.385L599.608 808.392L460.941 669.726L400.601 730.066L539.268 868.732C632.514 961.978 783.695 961.978 876.941 868.732z" />
        <glyph
          glyph-name="移动开发平台-fdelete_linkf0b2b-f"
          unicode="&#xf0b2b;"
          horiz-adv-x="1024" d=" M245.844 621.182L315.745 572.237L203.265 411.598C154.659 342.182 171.529 246.507 240.945 197.901C308.784 150.4 401.701 165.433 451.256 230.93L454.642 235.582L567.123 396.221L637.024 347.276L524.543 186.636C448.906 78.615 300.021 52.363 192 128C85.841 202.333 58.656 347.41 129.542 454.92L133.364 460.543L245.844 621.182zM588.497 691.503L648.837 631.163L392.837 375.163L332.497 435.503L588.497 691.503zM896.577 832C970.954 725.779 946.809 580.046 843.274 503.299L837.941 499.457L677.301 386.976L628.356 456.877L788.995 569.358C858.411 617.963 875.282 713.639 826.676 783.055C779.127 850.962 686.533 868.583 617.543 823.813L612.979 820.735L452.34 708.255L403.395 778.156L564.034 890.636C672.055 966.274 820.94 940.021 896.577 832zM192 725.333L192 640L64 640L64 725.333L192 725.333zM158.17 926.17L264.837 819.503L204.497 759.163L97.83 865.83L158.17 926.17zM384 960L384 832L298.667 832L298.667 960L384 960z" />
        <glyph
          glyph-name="移动开发平台-videof0b2c-f"
          unicode="&#xf0b2c;"
          horiz-adv-x="1024" d=" M789.333 853.333L789.333 730.389L960 815.703L960 208.297L789.333 293.632L789.333 170.667L64 170.667L64 853.333L789.333 853.333zM704 768L149.333 768L149.333 256L704 256L704 768zM874.667 677.653L789.333 634.987L789.333 389.035L874.667 346.368L874.667 677.653zM448 682.667L448 597.333L234.667 597.333L234.667 682.667L448 682.667z" />
        <glyph
          glyph-name="移动开发平台-file_excelf0b2d-f"
          unicode="&#xf0b2d;"
          horiz-adv-x="1024" d=" M725.333 234.667L725.333 106.667L768 106.667L768 64L682.667 64L682.667 234.667L725.333 234.667zM896 234.667L896 192L832 192L832 170.667L896 149.333L896 64L789.333 64L789.333 106.667L853.333 106.667L853.333 128L789.333 149.333L789.333 234.667L896 234.667zM692.676 960L874.667 729.479L874.667 320L789.333 320L789.333 640L597.333 640L597.333 874.667L234.667 874.667L234.667 149.333L448 149.333L448 64L149.333 64L149.333 960L692.676 960zM576 234.667L597.333 192L618.667 234.667L661.333 234.667L618.667 149.333L661.333 64L618.667 64L597.333 106.667L576 64L533.333 64L576 149.333L533.333 234.667L576 234.667zM682.667 834.965L682.667 725.333L769.216 725.333L682.667 834.965z" />
        <glyph
          glyph-name="移动开发平台-savef0b2e-f"
          unicode="&#xf0b2e;"
          horiz-adv-x="1024" d=" M711.006 917.333L917.333 711.006L917.333 106.667L106.667 106.667L106.667 917.333L711.006 917.333zM675.648 832L192 832L192 192L277.333 192L277.333 362.667L746.667 362.667L746.667 192L832 192L832 675.648L675.648 832zM661.333 277.333L362.667 277.333L362.667 192L661.333 192L661.333 277.333zM362.667 746.667L362.667 490.667L277.333 490.667L277.333 746.667L362.667 746.667z" />
        <glyph
          glyph-name="移动开发平台-readf0b2f-f"
          unicode="&#xf0b2f;"
          horiz-adv-x="1024" d=" M386.378 896C412.873 896 439.004 889.831 462.702 877.982L512 853.333L561.298 877.982C584.996 889.831 611.127 896 637.622 896L960 896L960 170.667L637.622 170.667C611.127 170.667 584.996 164.498 561.298 152.649L512 128L462.702 152.649C439.004 164.498 412.873 170.667 386.378 170.667L64 170.667L64 896L386.378 896zM386.378 810.667L149.333 810.667L149.333 256L386.378 256C414.683 256 442.711 251.306 469.341 242.184L469.333 779.264L424.54 801.658C414.384 806.736 403.334 809.727 392.041 810.479L386.378 810.667zM874.667 810.667L637.622 810.667C626.267 810.667 615.046 808.401 604.61 804.022L599.46 801.658L554.667 779.264L554.68 242.191C578.633 250.394 603.717 255.014 629.115 255.859L637.622 256L874.667 256L874.667 810.667zM384 490.667L384 405.333L234.667 405.333L234.667 490.667L384 490.667zM789.333 490.667L789.333 405.333L640 405.333L640 490.667L789.333 490.667zM384 661.333L384 576L234.667 576L234.667 661.333L384 661.333zM789.333 661.333L789.333 576L640 576L640 661.333L789.333 661.333z" />
        <glyph
          glyph-name="移动开发平台-slidef0b30-f"
          unicode="&#xf0b30;"
          horiz-adv-x="1024" d=" M938.667 949.333L938.667 864L917.333 864L917.333 266.667L593.664 266.667L712.837 147.503L652.497 87.163L512 227.648L371.503 87.163L311.163 147.503L430.293 266.667L106.667 266.667L106.667 864L85.333 864L85.333 949.333L938.667 949.333zM832 864L192 864L192 352L832 352L832 864zM694.553 766.112L754.955 705.835L512.667 463.047L417.508 556.11L326.974 467.746L267.367 528.81L417.573 675.43L511.94 583.112L694.553 766.112z" />
        <glyph
          glyph-name="移动开发平台-laptopf0b31-f"
          unicode="&#xf0b31;"
          horiz-adv-x="1024" d=" M896 896L895.98 433.131L996.436 106.667L698.263 106.688L698.266 106.667L325.734 106.667L325.719 106.688L27.564 106.667L127.98 433.067L128 896L896 896zM821.804 384L202.156 384L143.083 192L352.748 192.021L393.29 320L630.71 320L671.234 192.021L880.896 192L821.804 384zM568.213 234.667L455.765 234.667L442.22 192.021L581.719 192.021L568.213 234.667zM810.667 810.667L213.333 810.667L213.333 469.333L810.667 469.333L810.667 810.667z" />
        <glyph
          glyph-name="移动开发平台-code_tagsf0b32-f"
          unicode="&#xf0b32;"
          horiz-adv-x="1024" d=" M362.667 917.333L362.667 832L277.333 832C254.84 832 236.412 814.595 234.784 792.518L234.667 789.333L234.667 597.333C234.667 565.2 222.826 535.833 203.27 513.356L202.048 512L203.27 510.644C221.848 489.291 233.463 461.719 234.578 431.465L234.667 426.667L234.667 234.667C234.667 212.174 252.072 193.746 274.149 192.117L277.333 192L362.667 192L362.667 106.667L277.333 106.667C208.248 106.667 151.945 161.399 149.422 229.868L149.333 234.667L149.333 426.667C149.333 449.16 131.928 467.588 109.851 469.216L106.667 469.333L64 469.333L64 554.667L106.667 554.667C129.16 554.667 147.588 572.072 149.216 594.149L149.333 597.333L149.333 789.333C149.333 858.419 204.066 914.722 272.535 917.245L277.333 917.333L362.667 917.333zM746.667 917.333L751.465 917.245C819.934 914.722 874.667 858.419 874.667 789.333L874.667 789.333L874.667 597.333L874.784 594.149C876.412 572.072 894.84 554.667 917.333 554.667L917.333 554.667L960 554.667L960 469.333L917.333 469.333L914.149 469.216C892.072 467.588 874.667 449.16 874.667 426.667L874.667 426.667L874.667 234.667L874.578 229.868C872.055 161.399 815.752 106.667 746.667 106.667L746.667 106.667L661.333 106.667L661.333 192L746.667 192L749.851 192.117C771.928 193.746 789.333 212.174 789.333 234.667L789.333 234.667L789.333 426.667L789.422 431.465C790.537 461.719 802.152 489.291 820.73 510.644L820.73 510.644L821.952 512L820.73 513.356C801.174 535.833 789.333 565.2 789.333 597.333L789.333 597.333L789.333 789.333L789.216 792.518C787.588 814.595 769.16 832 746.667 832L746.667 832L661.333 832L661.333 917.333L746.667 917.333z" />
        <glyph
          glyph-name="移动开发平台-code_bracesf0b33-f"
          unicode="&#xf0b33;"
          horiz-adv-x="1024" d=" M371.503 810.667L431.843 750.327L184.692 503.163L431.843 256L371.503 195.66L64 503.163L371.503 810.667zM645.176 810.667L952.68 503.163L645.176 195.66L584.837 256L831.988 503.163L584.837 750.327L645.176 810.667z" />
        <glyph
          glyph-name="移动开发平台-split_linef0b34-f"
          unicode="&#xf0b34;"
          horiz-adv-x="1024" d=" M298.667 384L298.667 298.667L213.333 298.667L213.333 128L128 128L128 384L298.667 384zM896 384L896 128L810.667 128L810.667 298.667L725.333 298.667L725.333 384L896 384zM640 384L640 298.667L554.667 298.667L554.667 384L640 384zM469.333 384L469.333 298.667L384 298.667L384 384L469.333 384zM938.667 554.667L938.667 469.333L85.333 469.333L85.333 554.667L938.667 554.667zM213.333 896L213.333 725.333L298.667 725.333L298.667 640L128 640L128 896L213.333 896zM896 896L896 640L725.333 640L725.333 725.333L810.667 725.333L810.667 896L896 896zM640 725.333L640 640L554.667 640L554.667 725.333L640 725.333zM469.333 725.333L469.333 640L384 640L384 725.333L469.333 725.333z" />
        <glyph
          glyph-name="移动开发平台-italicf0b35-f"
          unicode="&#xf0b35;"
          horiz-adv-x="1024" d=" M810.667 917.333L810.667 832L631.04 832L480.448 192L640 192L640 106.667L213.333 106.667L213.333 192L392.939 192L543.509 832L384 832L384 917.333L810.667 917.333z" />
        <glyph
          glyph-name="移动开发平台-text_color_fillf0b36-f"
          unicode="&#xf0b36;"
          horiz-adv-x="1024" d=" M554.667 917.333L896 106.667L810.667 106.667L729.835 298.667L294.165 298.667L213.333 106.667L128 106.667L469.333 917.333L554.667 917.333zM512 816L330.112 384L693.888 384L512 816z" />
        <glyph
          glyph-name="移动开发平台-underlinef0b37-f"
          unicode="&#xf0b37;"
          horiz-adv-x="1024" d=" M874.667 192L874.667 106.667L149.333 106.667L149.333 192L874.667 192zM298.667 917.333L298.667 576C298.667 458.179 394.179 362.667 512 362.667C627.824 362.667 722.089 454.969 725.251 570.029L725.333 576L725.333 917.333L810.667 917.333L810.667 576C810.667 411.051 676.949 277.333 512 277.333C349.28 277.333 216.953 407.461 213.406 569.33L213.333 576L213.333 917.333L298.667 917.333z" />
        <glyph
          glyph-name="移动开发平台-strikethroughf0b38-f"
          unicode="&#xf0b38;"
          horiz-adv-x="1024" d=" M106.667 426.667L106.667 512L917.333 512L917.333 426.667L554.667 426.667L554.667 192L682.667 192L682.667 106.667L341.333 106.667L341.333 192L469.333 192L469.333 426.667L106.667 426.667zM874.667 917.333L874.667 682.667L789.333 682.667L789.333 832L554.667 832L554.667 597.333L469.333 597.333L469.333 832L234.667 832L234.667 682.667L149.333 682.667L149.333 917.333L874.667 917.333z" />
        <glyph
          glyph-name="移动开发平台-quotef0b39-f"
          unicode="&#xf0b39;"
          horiz-adv-x="1024" d=" M469.333 917.333L469.333 832L320 832C250.914 832 194.612 777.268 192.088 708.799L192 704L192 554.667L469.333 554.667L469.333 106.667L106.667 106.667L106.667 704C106.667 819.824 198.969 914.089 314.029 917.251L320 917.333L469.333 917.333zM917.333 917.333L917.333 832L768 832C698.914 832 642.612 777.268 640.088 708.799L640 704L640 554.667L917.333 554.667L917.333 106.667L554.667 106.667L554.667 704C554.667 819.824 646.969 914.089 762.029 917.251L768 917.333L917.333 917.333zM384 469.333L192 469.333L192 192L384 192L384 469.333zM832 469.333L640 469.333L640 192L832 192L832 469.333z" />
        <glyph
          glyph-name="移动开发平台-text_colorf0b3a-f"
          unicode="&#xf0b3a;"
          horiz-adv-x="1024" d=" M554.667 938.667L810.667 256L725.333 256L677.333 384L346.667 384L298.667 256L213.333 256L469.333 938.667L554.667 938.667zM512 824.896L378.667 469.333L645.333 469.333L512 824.896z" />
        <glyph
          glyph-name="移动开发平台-cell_color_fillf0b3b-f"
          unicode="&#xf0b3b;"
          horiz-adv-x="1024" d=" M359.006 938.667L881.738 415.935L682.036 330.359L423.006 71.32L64 430.327L405.321 771.66L359.006 817.975L218.51 677.49L158.17 737.83L359.006 938.667zM849.673 346.51L925.098 271.085L928.3 267.743C966.725 225.892 965.658 160.795 925.098 120.235C883.442 78.58 815.904 78.58 774.248 120.235C733.855 160.629 732.631 225.36 770.576 267.228L774.248 271.085L849.673 346.51zM465.673 711.308L184.692 430.327L423.006 192.012L633.313 402.307L732.254 444.727L465.673 711.308z" />
        <glyph
          glyph-name="移动开发平台-format_clearf0b3c-f"
          unicode="&#xf0b3c;"
          horiz-adv-x="1024" d=" M167.006 917.333L935.006 149.333L874.667 88.994L563.477 400.192L563.503 183.163L691.503 183.163L691.503 97.83L350.17 97.83L350.17 183.163L478.17 183.163L478.144 485.525L243.477 720.192L243.503 673.83L158.17 673.83L158.144 805.525L106.667 856.994L167.006 917.333zM296.482 908.51L883.503 908.497L883.503 673.83L798.17 673.83L798.17 823.163L563.503 823.163L563.49 641.502L478.156 726.836L478.17 823.163L381.815 823.177L296.482 908.51z" />
        <glyph
          glyph-name="移动开发平台-boldf0b3d-f"
          unicode="&#xf0b3d;"
          horiz-adv-x="1024" d=" M170.667 917.333L576 917.333C693.821 917.333 789.333 821.821 789.333 704C789.333 643.89 764.473 589.587 724.474 550.811C800.924 512.165 853.333 432.87 853.333 341.333C853.333 211.731 748.269 106.667 618.667 106.667L618.667 106.667L170.667 106.667L170.667 917.333zM618.667 490.667L256 490.667L256 192L618.667 192C701.141 192 768 258.859 768 341.333C768 423.808 701.141 490.667 618.667 490.667L618.667 490.667zM576 832L256 832L256 576L576 576C646.692 576 704 633.308 704 704C704 774.692 646.692 832 576 832L576 832z" />
        <glyph
          glyph-name="移动开发平台-enterf0b3e-f"
          unicode="&#xf0b3e;"
          horiz-adv-x="1024" d=" M960 874.667L960 341.333L220.636 341.333L359.006 202.981L298.667 142.641L57.308 384L298.667 625.359L359.006 565.019L220.636 426.667L874.667 426.667L874.667 789.333L597.333 789.333L597.333 874.667L960 874.667z" />
        <glyph
          glyph-name="移动开发平台-clear_formatf0b3f-f"
          unicode="&#xf0b3f;"
          horiz-adv-x="1024" d=" M689.315 932.299L1015.098 499.971L682.627 249.474L628.47 211.808L950.727 211.797L950.727 126.464L519.819 126.475L519.755 126.403L258.146 126.423L26.977 433.196L240.574 594.148L689.315 932.299zM294.305 527.819L146.475 416.405L300.641 211.808L489.803 211.808L526.475 241.163L294.305 527.819zM672.491 812.8L362.496 579.179L594.859 292.352L632.575 318.568L895.573 516.779L672.491 812.8z" />
        <glyph
          glyph-name="移动开发平台-format_brushf0b40-f"
          unicode="&#xf0b40;"
          horiz-adv-x="1024" d=" M768 512L85.333 512L85.333 917.333L768 917.333L768 768L960 768L960 341.333L448 268.181L448 64L362.667 64L362.667 341.333L874.667 414.485L874.667 682.667L768 682.667L768 512zM682.667 832L170.667 832L170.667 597.333L682.667 597.333L682.667 832z" />
        <glyph
          glyph-name="移动开发平台-color_fillf0b41-f"
          unicode="&#xf0b41;"
          horiz-adv-x="1024" d=" M359.006 960L796.405 522.602L596.702 437.026L401.673 241.987L128 515.66L405.321 792.994L359.006 839.308L261.176 741.49L200.837 801.83L359.006 960zM828.34 465.673L888.68 405.333L891.617 402.248C921.974 368.753 920.994 316.969 888.68 284.654C855.355 251.329 801.325 251.329 768 284.654C735.786 316.868 734.712 368.43 764.779 401.933L768 405.333L828.34 465.673zM465.673 732.642L248.692 515.66L401.673 362.679L547.98 508.974L646.921 551.394L465.673 732.642z" />
        <glyph
          glyph-name="移动开发平台-combinef0b42-f"
          unicode="&#xf0b42;"
          horiz-adv-x="1024" d=" M469.333 938.667L469.333 725.333L384 725.333L384 853.333L170.667 853.333L170.667 170.667L384 170.667L384 298.667L469.333 298.667L469.333 85.333L85.333 85.333L85.333 938.667L469.333 938.667zM938.667 938.667L938.667 85.333L554.667 85.333L554.667 298.667L640 298.667L640 170.667L853.333 170.667L853.333 853.333L640 853.333L640 725.333L554.667 725.333L554.667 938.667L938.667 938.667zM649.889 667.315L715.444 612.685L667.084 554.675L810.667 554.667L810.667 469.333L667.084 469.341L715.444 411.315L649.889 356.685L520.46 512L649.889 667.315zM374.111 667.315L503.54 512L374.111 356.685L308.556 411.315L356.885 469.341L213.333 469.333L213.333 554.667L356.885 554.675L308.556 612.685L374.111 667.315z" />
        <glyph
          glyph-name="移动开发平台-splitf0b43-f"
          unicode="&#xf0b43;"
          horiz-adv-x="1024" d=" M469.333 938.667L469.333 85.333L85.333 85.333L85.333 298.667L170.667 298.667L170.667 170.667L384 170.667L384 853.333L170.667 853.333L170.667 725.333L85.333 725.333L85.333 938.667L469.333 938.667zM938.667 938.667L938.667 725.333L853.333 725.333L853.333 853.333L640 853.333L640 170.667L853.333 170.667L853.333 298.667L938.667 298.667L938.667 85.333L554.667 85.333L554.667 938.667L938.667 938.667zM180.556 667.315L246.111 612.685L197.751 554.675L341.333 554.667L341.333 469.333L197.751 469.341L246.111 411.315L180.556 356.685L51.127 512L180.556 667.315zM843.444 667.315L972.873 512L843.444 356.685L777.889 411.315L826.219 469.341L682.667 469.333L682.667 554.667L826.219 554.675L777.889 612.685L843.444 667.315z" />
        <glyph
          glyph-name="移动开发平台-add_col_beforef0b44-f"
          unicode="&#xf0b44;"
          horiz-adv-x="1024" d=" M213.333 85.333L213.333 512L298.667 512L298.667 170.667L512 170.667L512 938.667L896 938.667L896 85.333L213.333 85.333zM597.333 170.667L810.667 170.667L810.667 853.333L597.333 853.333L597.333 170.667zM298.667 938.667L298.667 810.667L426.667 810.667L426.667 725.333L298.667 725.333L298.667 597.333L213.333 597.333L213.333 725.333L85.333 725.333L85.333 810.667L213.333 810.667L213.333 938.667L298.667 938.667z" />
        <glyph
          glyph-name="移动开发平台-add_col_afterf0b45-f"
          unicode="&#xf0b45;"
          horiz-adv-x="1024" d=" M512 170.667L725.333 170.667L725.333 512L810.667 512L810.667 85.333L128 85.333L128 938.667L512 938.667L512 170.667zM426.667 853.333L213.333 853.333L213.333 170.667L426.667 170.667L426.667 853.333zM810.667 938.667L810.667 810.667L938.667 810.667L938.667 725.333L810.667 725.333L810.667 597.333L725.333 597.333L725.333 725.333L597.333 725.333L597.333 810.667L725.333 810.667L725.333 938.667L810.667 938.667z" />
        <glyph
          glyph-name="移动开发平台-add_row_abovef0b46-f"
          unicode="&#xf0b46;"
          horiz-adv-x="1024" d=" M298.667 426.667L298.667 298.667L426.667 298.667L426.667 213.333L298.667 213.333L298.667 85.333L213.333 85.333L213.333 213.333L85.333 213.333L85.333 298.667L213.333 298.667L213.333 426.667L298.667 426.667zM938.667 896L938.667 213.333L512 213.333L512 298.667L853.333 298.667L853.333 512L85.333 512L85.333 896L938.667 896zM853.333 810.667L170.667 810.667L170.667 597.333L853.333 597.333L853.333 810.667z" />
        <glyph
          glyph-name="移动开发平台-add_row_belowf0b47-f"
          unicode="&#xf0b47;"
          horiz-adv-x="1024" d=" M938.667 810.667L938.667 128L85.333 128L85.333 512L853.333 512L853.333 725.333L512 725.333L512 810.667L938.667 810.667zM853.333 426.667L170.667 426.667L170.667 213.333L853.333 213.333L853.333 426.667zM298.667 938.667L298.667 810.667L426.667 810.667L426.667 725.333L298.667 725.333L298.667 597.333L213.333 597.333L213.333 725.333L85.333 725.333L85.333 810.667L213.333 810.667L213.333 938.667L298.667 938.667z" />
        <glyph
          glyph-name="移动开发平台-delete_rowf0b48-f"
          unicode="&#xf0b48;"
          horiz-adv-x="1024" d=" M179.503 904.837L904.837 179.503L844.497 119.163L664.96 298.693L85.333 298.667L85.333 725.333L238.293 725.359L119.163 844.497L179.503 904.837zM479.637 725.347L938.667 725.333L938.667 298.667L906.325 298.68L820.992 384.014L853.333 384L853.333 640L564.971 640.014L479.637 725.347zM323.627 640.026L170.667 640L170.667 384L579.627 384.026L323.627 640.026z" />
        <glyph
          glyph-name="移动开发平台-delete_colf0b49-f"
          unicode="&#xf0b49;"
          horiz-adv-x="1024" d=" M179.503 904.837L904.837 179.503L844.497 119.163L725.307 238.357L725.333 85.333L298.667 85.333L298.641 665.024L119.163 844.497L179.503 904.837zM383.974 579.691L384 170.667L640 170.667L639.974 323.691L383.974 579.691zM725.333 938.667L725.32 479.701L639.986 565.035L640 853.333L384 853.333L383.986 821.035L298.653 906.368L298.667 938.667L725.333 938.667z" />
        <glyph
          glyph-name="移动开发平台-delete_tablef0b4a-f"
          unicode="&#xf0b4a;"
          horiz-adv-x="1024" d=" M917.333 917.333L917.333 768L832 768L832 832L426.667 832L426.667 106.667L106.667 106.667L106.667 917.333L917.333 917.333zM960 533.333L960 448L917.333 448L917.333 106.667L554.667 106.667L554.667 448L512 448L512 533.333L960 533.333zM341.333 362.667L192 362.667L192 192L341.333 192L341.333 362.667zM832 448L640 448L640 192L832 192L832 448zM341.333 597.333L192 597.333L192 448L341.333 448L341.333 597.333zM832 682.667L832 597.333L640 597.333L640 682.667L832 682.667zM341.333 832L192 832L192 682.667L341.333 682.667L341.333 832z" />
        <glyph
          glyph-name="移动开发平台-tablef0b4b-f"
          unicode="&#xf0b4b;"
          horiz-adv-x="1024" d=" M106.667 106.667L106.667 917.333L917.333 917.333L917.333 106.667L106.667 106.667zM341.333 362.667L192 362.667L192 192L341.333 192L341.333 362.667zM832 362.667L426.667 362.667L426.667 192L832 192L832 362.667zM341.333 597.333L192 597.333L192 448L341.333 448L341.333 597.333zM832 597.333L426.667 597.333L426.667 448L832 448L832 597.333zM341.333 832L192 832L192 682.667L341.333 682.667L341.333 832zM832 832L426.667 832L426.667 682.667L832 682.667L832 832z" />
        <glyph
          glyph-name="移动开发平台-head6f0b4c-f"
          unicode="&#xf0b4c;"
          horiz-adv-x="1024" d=" M805.888 597.163C822.613 597.163 838.343 594.375 853.077 588.8C867.812 583.225 880.853 575.46 892.203 565.504C903.552 555.548 912.811 543.602 919.979 529.664C927.147 515.726 931.129 500.196 931.925 483.072L931.925 483.072L863.829 483.072L863.217 488.111C860.977 502.93 855.108 515.089 845.611 524.587C835.058 535.14 820.821 540.416 802.901 540.416C790.556 540.416 779.904 538.126 770.944 533.547C761.984 528.967 754.418 522.894 748.245 515.328C742.073 507.762 737.095 499.1 733.312 489.344C729.529 479.588 726.443 469.333 724.053 458.581C721.664 447.829 719.972 437.177 718.976 426.624C717.98 416.071 717.084 406.215 716.288 397.056L716.288 397.056L717.483 395.861L720.335 400.751C729.205 415.033 740.898 425.847 755.413 433.195C771.541 441.358 788.964 445.44 807.68 445.44C828.388 445.44 846.905 441.856 863.232 434.688C879.559 427.52 893.397 417.664 904.747 405.12C916.096 392.576 924.757 377.742 930.731 360.619C936.704 343.495 939.691 324.978 939.691 305.067C939.691 284.757 936.405 265.941 929.835 248.619C923.264 231.296 913.806 216.164 901.461 203.221C889.116 190.279 874.382 180.224 857.259 173.056C840.135 165.888 821.22 162.304 800.512 162.304C769.849 162.304 744.661 167.979 724.949 179.328C705.237 190.677 689.707 206.208 678.357 225.92C667.008 245.632 659.143 268.729 654.763 295.211C650.382 321.692 648.192 350.265 648.192 380.928C648.192 406.016 650.88 431.303 656.256 456.789C661.632 482.276 670.492 505.472 682.837 526.379C695.182 547.285 711.41 564.309 731.52 577.451C751.63 590.592 776.42 597.163 805.888 597.163zM149.333 896L149.333 597.333L469.333 597.333L469.333 896L554.667 896L554.667 170.667L469.333 170.667L469.333 512L149.333 512L149.333 170.667L64 170.667L64 896L149.333 896zM798.123 391.68C785.778 391.68 774.926 389.39 765.568 384.811C756.21 380.231 748.345 374.059 741.973 366.293C735.602 358.528 730.823 349.468 727.637 339.115C724.452 328.761 722.859 317.81 722.859 306.261C722.859 294.713 724.452 283.762 727.637 273.408C730.823 263.054 735.602 253.796 741.973 245.632C748.345 237.468 756.21 230.997 765.568 226.219C774.926 221.44 785.778 219.051 798.123 219.051C810.468 219.051 821.22 221.54 830.379 226.517C839.538 231.495 847.204 237.966 853.376 245.931C859.548 253.895 864.128 263.154 867.115 273.707C870.101 284.26 871.595 295.111 871.595 306.261C871.595 317.412 870.101 328.164 867.115 338.517C864.128 348.871 859.548 357.931 853.376 365.696C847.204 373.461 839.538 379.733 830.379 384.512C821.22 389.291 810.468 391.68 798.123 391.68z" />
        <glyph
          glyph-name="移动开发平台-head5f0b4d-f"
          unicode="&#xf0b4d;"
          horiz-adv-x="1024" d=" M917.589 588.8L917.589 527.872L752.128 527.872L730.624 421.547L731.819 420.352L735.37 424.118C743.929 432.633 754.393 439.243 766.763 443.947C780.9 449.323 794.937 452.011 808.875 452.011C829.582 452.011 848.1 448.526 864.427 441.557C880.754 434.588 894.492 424.832 905.643 412.288C916.793 399.744 925.255 384.91 931.029 367.787C936.804 350.663 939.691 332.146 939.691 312.235C939.691 295.509 937.003 278.286 931.627 260.565C926.251 242.844 917.689 226.716 905.941 212.181C894.194 197.646 879.161 185.7 860.843 176.341C842.524 166.983 820.622 162.304 795.136 162.304C774.827 162.304 756.011 164.992 738.688 170.368C721.365 175.744 706.133 183.808 692.992 194.56C679.851 205.312 669.397 218.553 661.632 234.283C653.867 250.012 649.586 268.43 648.789 289.536L648.789 289.536L716.885 289.536L717.503 283.971C720.211 263.97 727.77 248.403 740.181 237.269C753.721 225.124 771.641 219.051 793.941 219.051C808.277 219.051 820.423 221.44 830.379 226.219C840.334 230.997 848.398 237.568 854.571 245.931C860.743 254.293 865.124 264.05 867.712 275.2C870.3 286.35 871.595 298.297 871.595 311.04C871.595 322.588 870.002 333.639 866.816 344.192C863.63 354.745 858.852 364.004 852.48 371.968C846.108 379.932 837.845 386.304 827.691 391.083C817.536 395.861 805.689 398.251 792.149 398.251C777.813 398.251 764.373 395.563 751.829 390.187C739.285 384.811 730.226 374.756 724.651 360.021L724.651 360.021L656.555 360.021L701.355 588.8L917.589 588.8zM149.333 896L149.333 597.333L469.333 597.333L469.333 896L554.667 896L554.667 170.667L469.333 170.667L469.333 512L149.333 512L149.333 170.667L64 170.667L64 896L149.333 896z" />
        <glyph
          glyph-name="移动开发平台-head4f0b4e-f"
          unicode="&#xf0b4e;"
          horiz-adv-x="1024" d=" M149.333 896L149.333 597.333L469.333 597.333L469.333 896L554.667 896L554.667 170.667L469.333 170.667L469.333 512L149.333 512L149.333 170.667L64 170.667L64 896L149.333 896zM885.931 588.8L885.931 323.584L939.691 323.584L939.691 269.824L885.931 269.824L885.931 170.667L821.419 170.667L821.419 269.824L642.219 269.824L642.219 337.323L821.419 588.8L885.931 588.8zM821.419 507.563L820.224 507.563L694.784 323.584L821.419 323.584L821.419 507.563z" />
        <glyph
          glyph-name="移动开发平台-head3f0b4f-f"
          unicode="&#xf0b4f;"
          horiz-adv-x="1024" d=" M792.747 597.163C809.074 597.163 825.102 594.773 840.832 589.995C856.562 585.216 870.699 578.247 883.243 569.088C895.787 559.929 905.842 548.281 913.408 534.144C920.974 520.007 924.757 503.78 924.757 485.461C924.757 464.356 919.979 445.938 910.421 430.208C900.864 414.478 885.931 403.029 865.621 395.861L865.621 395.861L865.621 394.667L871.042 393.438C892.348 388.024 909.158 376.586 921.472 359.125C934.812 340.21 941.483 317.212 941.483 290.133C941.483 270.222 937.5 252.402 929.536 236.672C921.572 220.942 910.82 207.602 897.28 196.651C883.74 185.7 868.011 177.237 850.091 171.264C832.171 165.291 813.255 162.304 793.344 162.304C769.052 162.304 747.847 165.788 729.728 172.757C711.609 179.726 696.476 189.582 684.331 202.325C672.185 215.068 662.926 230.4 656.555 248.32C650.183 266.24 646.798 286.151 646.4 308.053L646.4 308.053L714.496 308.053L714.438 302.248C714.706 279.33 720.998 260.06 733.312 244.437C746.652 227.513 766.663 219.051 793.344 219.051C816.043 219.051 835.058 225.522 850.389 238.464C865.721 251.406 873.387 269.824 873.387 293.717C873.387 310.044 870.201 322.987 863.829 332.544C857.458 342.101 849.095 349.369 838.741 354.347C828.388 359.324 816.74 362.411 803.797 363.605C790.855 364.8 777.614 365.198 764.075 364.8L764.075 364.8L764.075 415.573L770.765 415.478C779.685 415.541 788.605 416.37 797.525 417.963C808.676 419.954 818.631 423.438 827.392 428.416C836.153 433.394 843.221 440.263 848.597 449.024C853.973 457.785 856.661 468.537 856.661 481.28C856.661 499.2 850.588 513.536 838.443 524.288C826.297 535.04 810.667 540.416 791.552 540.416C779.605 540.416 769.252 538.027 760.491 533.248C751.73 528.469 744.462 521.998 738.688 513.835C732.914 505.671 728.633 496.512 725.845 486.357C723.058 476.203 721.863 465.749 722.261 454.997L722.261 454.997L654.165 454.997L654.604 462.543C655.954 479.987 659.591 496.288 665.515 511.445C672.284 528.768 681.543 543.801 693.291 556.544C705.038 569.287 719.275 579.243 736 586.411C752.725 593.579 771.641 597.163 792.747 597.163zM149.333 896L149.333 597.333L469.333 597.333L469.333 896L554.667 896L554.667 170.667L469.333 170.667L469.333 512L149.333 512L149.333 170.667L64 170.667L64 896L149.333 896z" />
        <glyph
          glyph-name="移动开发平台-head2f0b50-f"
          unicode="&#xf0b50;"
          horiz-adv-x="1024" d=" M149.333 896L149.333 597.333L469.333 597.333L469.333 896L554.667 896L554.667 170.667L469.333 170.667L469.333 512L149.333 512L149.333 170.667L64 170.667L64 896L149.333 896zM802.901 597.163C828.388 597.163 849.692 592.981 866.816 584.619C883.94 576.256 897.778 565.703 908.331 552.96C918.884 540.217 926.35 526.379 930.731 511.445C935.111 496.512 937.301 482.276 937.301 468.736C937.301 452.011 934.713 436.878 929.536 423.339C924.359 409.799 917.39 397.355 908.629 386.005C899.868 374.656 889.913 364.203 878.763 354.645C867.612 345.088 856.064 336.128 844.117 327.765C832.171 319.403 820.224 311.438 808.277 303.872C796.331 296.306 785.28 288.74 775.125 281.173C764.971 273.607 756.11 265.742 748.544 257.579C740.978 249.415 735.801 240.754 733.013 231.595L733.013 231.595L936.704 231.595L936.704 170.667L651.179 170.667L651.412 178.584C652.911 209.942 661.195 237.568 676.267 261.461C692.594 287.346 714.894 309.845 743.168 328.96C756.708 338.916 770.844 348.572 785.579 357.931C800.313 367.289 813.852 377.344 826.197 388.096C838.542 398.848 848.697 410.496 856.661 423.04C864.626 435.584 868.807 450.02 869.205 466.347C869.205 473.913 868.309 481.977 866.517 490.539C864.725 499.1 861.241 507.065 856.064 514.432C850.887 521.799 843.719 527.972 834.56 532.949C825.401 537.927 813.454 540.416 798.72 540.416C785.18 540.416 773.931 537.728 764.971 532.352C756.011 526.976 748.843 519.609 743.467 510.251C738.091 500.892 734.108 489.842 731.52 477.099C728.932 464.356 727.438 450.617 727.04 435.883L727.04 435.883L658.944 435.883L659.089 444.465C659.764 464.304 662.802 482.848 668.203 500.096C674.375 519.808 683.634 536.832 695.979 551.168C708.324 565.504 723.356 576.754 741.077 584.917C758.798 593.081 779.406 597.163 802.901 597.163z" />
        <glyph
          glyph-name="移动开发平台-head1f0b51-f"
          unicode="&#xf0b51;"
          horiz-adv-x="1024" d=" M149.333 896L149.333 576L490.667 576L490.667 896L576 896L576 170.667L490.667 170.667L490.667 490.667L149.333 490.667L149.333 170.667L64 170.667L64 896L149.333 896zM836.949 588.8L836.949 170.667L762.283 170.667L762.283 465.749L659.541 465.749L659.541 519.509L668.095 519.653C679.437 520.035 690.523 521.182 701.355 523.093C714.894 525.483 727.14 529.465 738.091 535.04C749.042 540.615 758.4 547.783 766.165 556.544C773.931 565.305 779.008 576.057 781.397 588.8L781.397 588.8L836.949 588.8z" />
        <glyph
          glyph-name="移动开发平台-headf0b52-f"
          unicode="&#xf0b52;"
          horiz-adv-x="1024" d=" M256 960L256 576L768 576L768 960L853.333 960L853.333 64L768 64L768 490.667L256 490.667L256 64L170.667 64L170.667 960L256 960z" />
        <glyph
          glyph-name="移动开发平台-outdentf0b53-f"
          unicode="&#xf0b53;"
          horiz-adv-x="1024" d=" M917.333 277.333L917.333 192L149.333 192L149.333 277.333L917.333 277.333zM310.111 768L439.54 612.685L310.111 457.371L244.556 512L292.885 570.027L149.333 570.019L149.333 655.352L292.885 655.36L244.556 713.371L310.111 768zM917.333 554.667L917.333 469.333L533.333 469.333L533.333 554.667L917.333 554.667zM917.333 832L917.333 746.667L533.333 746.667L533.333 832L917.333 832z" />
        <glyph
          glyph-name="移动开发平台-unorderedf0b54-f"
          unicode="&#xf0b54;"
          horiz-adv-x="1024" d=" M917.333 234.667L917.333 149.333L277.333 149.333L277.333 234.667L917.333 234.667zM192 234.667L192 149.333L106.667 149.333L106.667 234.667L192 234.667zM917.333 554.667L917.333 469.333L277.333 469.333L277.333 554.667L917.333 554.667zM192 554.667L192 469.333L106.667 469.333L106.667 554.667L192 554.667zM917.333 874.667L917.333 789.333L277.333 789.333L277.333 874.667L917.333 874.667zM192 874.667L192 789.333L106.667 789.333L106.667 874.667L192 874.667z" />
        <glyph
          glyph-name="移动开发平台-lnentf0b57-f"
          unicode="&#xf0b57;"
          horiz-adv-x="1024" d=" M917.333 277.333L917.333 192L149.333 192L149.333 277.333L917.333 277.333zM236.095 768L301.65 713.371L253.291 655.36L396.873 655.352L396.873 570.019L253.291 570.027L301.65 512L236.095 457.371L106.667 612.685L236.095 768zM917.333 554.667L917.333 469.333L533.333 469.333L533.333 554.667L917.333 554.667zM917.333 832L917.333 746.667L533.333 746.667L533.333 832L917.333 832z" />
        <glyph
          glyph-name="移动开发平台-align_middlef0b58-f"
          unicode="&#xf0b58;"
          horiz-adv-x="1024" d=" M507.77 384L663.084 254.571L608.455 189.016L550.444 237.346L550.436 93.794L465.103 93.794L465.111 237.346L407.084 189.016L352.455 254.571L507.77 384zM917.333 554.667L917.333 469.333L106.667 469.333L106.667 554.667L917.333 554.667zM550.436 917.333L550.444 773.781L608.455 822.111L663.084 756.556L507.77 627.127L352.455 756.556L407.084 822.111L465.111 773.781L465.103 917.333L550.436 917.333z" />
        <glyph
          glyph-name="移动开发平台-back_to_topf0b59-f"
          unicode="&#xf0b59;"
          horiz-adv-x="1024" d=" M507.77 661.333L663.084 531.905L608.455 466.35L550.444 514.679L550.436 157.794L465.103 157.794L465.111 514.679L407.084 466.35L352.455 531.905L507.77 661.333zM917.333 874.667L917.333 789.333L106.667 789.333L106.667 874.667L917.333 874.667z" />
        <glyph
          glyph-name="移动开发平台-align_bottomf0b5a-f"
          unicode="&#xf0b5a;"
          horiz-adv-x="1024" d=" M917.333 234.667L917.333 149.333L106.667 149.333L106.667 234.667L917.333 234.667zM550.436 874.667L550.444 517.781L608.455 566.111L663.084 500.556L507.77 371.127L352.455 500.556L407.084 566.111L465.111 517.781L465.103 874.667L550.436 874.667z" />
        <glyph
          glyph-name="移动开发平台-line_heightf0b5b-f"
          unicode="&#xf0b5b;"
          horiz-adv-x="1024" d=" M213.333 935.006L371.503 776.837L311.163 716.497L255.995 771.657L255.995 252.361L311.163 307.503L371.503 247.163L213.333 88.994L55.163 247.163L115.503 307.503L170.662 252.361L170.662 771.657L115.503 716.497L55.163 776.837L213.333 935.006zM768 234.667L768 149.333L469.333 149.333L469.333 234.667L768 234.667zM938.667 448L938.667 362.667L469.333 362.667L469.333 448L938.667 448zM768 661.333L768 576L469.333 576L469.333 661.333L768 661.333zM938.667 874.667L938.667 789.333L469.333 789.333L469.333 874.667L938.667 874.667z" />
        <glyph
          glyph-name="移动开发平台-alignrightf0b5c-f"
          unicode="&#xf0b5c;"
          horiz-adv-x="1024" d=" M917.333 213.333L917.333 128L106.667 128L106.667 213.333L917.333 213.333zM917.333 384L917.333 298.667L448 298.667L448 384L917.333 384zM917.333 554.667L917.333 469.333L106.667 469.333L106.667 554.667L917.333 554.667zM917.333 725.333L917.333 640L448 640L448 725.333L917.333 725.333zM917.333 896L917.333 810.667L106.667 810.667L106.667 896L917.333 896z" />
        <glyph
          glyph-name="移动开发平台-align_justifyf0b5d-f"
          unicode="&#xf0b5d;"
          horiz-adv-x="1024" d=" M917.333 213.333L917.333 128L106.667 128L106.667 213.333L917.333 213.333zM917.333 384L917.333 298.667L106.667 298.667L106.667 384L917.333 384zM917.333 554.667L917.333 469.333L106.667 469.333L106.667 554.667L917.333 554.667zM917.333 725.333L917.333 640L106.667 640L106.667 725.333L917.333 725.333zM917.333 896L917.333 810.667L106.667 810.667L106.667 896L917.333 896z" />
        <glyph
          glyph-name="移动开发平台-align_leftf0b5e-f"
          unicode="&#xf0b5e;"
          horiz-adv-x="1024" d=" M917.333 213.333L917.333 128L106.667 128L106.667 213.333L917.333 213.333zM576 384L576 298.667L106.667 298.667L106.667 384L576 384zM917.333 554.667L917.333 469.333L106.667 469.333L106.667 554.667L917.333 554.667zM576 725.333L576 640L106.667 640L106.667 725.333L576 725.333zM917.333 896L917.333 810.667L106.667 810.667L106.667 896L917.333 896z" />
        <glyph
          glyph-name="移动开发平台-align_centerf0b5f-f"
          unicode="&#xf0b5f;"
          horiz-adv-x="1024" d=" M917.333 213.333L917.333 128L106.667 128L106.667 213.333L917.333 213.333zM746.667 384L746.667 298.667L277.333 298.667L277.333 384L746.667 384zM917.333 554.667L917.333 469.333L106.667 469.333L106.667 554.667L917.333 554.667zM746.667 725.333L746.667 640L277.333 640L277.333 725.333L746.667 725.333zM917.333 896L917.333 810.667L106.667 810.667L106.667 896L917.333 896z" />
        <glyph
          glyph-name="移动开发平台-drop_up_fillf0b60-o"
          unicode="&#xf0b60;"
          horiz-adv-x="1024" d=" M256 362.667L768 362.667L512 661.333z" />
        <glyph
          glyph-name="移动开发平台-drop_down_fillf0b61-o"
          unicode="&#xf0b61;"
          horiz-adv-x="1024" d=" M256 661.333L768 661.333L512 362.667z" />
        <glyph
          glyph-name="移动开发平台-tasklistf0b56-f"
          unicode="&#xf0b56;"
          horiz-adv-x="1024" d=" M105.151 801.83L165.49 862.17L204.485 823.175L295.006 913.673L355.346 853.333L204.497 702.484L105.151 801.83zM405.333 917.333L917.333 917.333L917.333 832L405.333 832L405.333 917.333zM405.333 597.333L917.333 597.333L917.333 512L405.333 512L405.333 597.333zM320 597.333L320 384L106.667 384L106.667 597.333L320 597.333zM256 533.333L170.667 533.333L170.667 448L256 448L256 533.333zM320 320L320 106.667L106.667 106.667L106.667 320L320 320zM256 256L170.667 256L170.667 170.667L256 170.667L256 256zM405.333 320L917.333 320L917.333 234.667L405.333 234.667L405.333 320zM405.333 789.333L682.667 789.333L682.667 704L405.333 704L405.333 789.333zM405.333 469.333L682.667 469.333L682.667 384L405.333 384L405.333 469.333zM405.333 192L682.667 192L682.667 106.667L405.333 106.667L405.333 192z" />
        <glyph
          glyph-name="移动开发平台-orderedf0b55-f"
          unicode="&#xf0b55;"
          horiz-adv-x="1024" d=" M320 874.667L917.333 874.667L917.333 789.333L320 789.333L320 874.667zM320 554.667L917.333 554.667L917.333 469.333L320 469.333L320 554.667zM320 234.667L917.333 234.667L917.333 149.333L320 149.333L320 234.667zM159.904 196.179L159.904 232.044L181.333 232.044C197.536 232.044 208.437 242.41 208.437 256.029C208.437 270.027 196.64 279.485 181.483 279.485C164.832 279.485 154.08 267.984 153.632 256.029L109.579 256.029C110.773 291.364 137.429 315.578 183.2 315.578C227.104 315.728 254.432 293.559 254.656 262.385C254.797 251.693 251.179 241.299 244.448 233.064C237.716 224.828 228.313 219.29 217.92 217.44L217.92 214.944C229.703 214.053 240.694 208.594 248.607 199.701C256.52 190.809 260.746 179.168 260.405 167.198C260.629 126.869 222.923 106.667 181.931 106.667C132.949 106.667 107.264 134.662 106.667 166.744L150.123 166.744C150.72 153.276 164.011 143.591 181.632 143.364C200.597 143.364 213.291 154.335 213.141 169.846C212.992 184.601 201.568 196.179 182.229 196.179L159.829 196.179L159.904 196.179zM159.605 551.725L114.507 551.725L114.507 554.373C114.507 585.244 136.533 618.233 186.037 618.233C229.568 618.233 257.717 593.567 257.717 561.031C257.717 531.598 238.528 514.346 222.176 496.868L182.08 453.588L182.08 451.318L260.779 451.318L260.779 412.957L117.344 412.957L117.344 442.844L188.8 517.751C199.104 528.496 210.677 540.753 210.677 556.189C210.677 569.808 199.701 580.401 185.141 580.401C181.78 580.526 178.429 579.953 175.295 578.715C172.161 577.478 169.31 575.604 166.917 573.208C164.525 570.812 162.642 567.945 161.385 564.784C160.127 561.623 159.522 558.234 159.605 554.827L159.605 551.725zM223.445 715.613L176.032 715.613L176.032 872.691L173.717 872.691L129.067 840.913L129.067 883.814L176.032 917.333L223.445 917.333L223.445 715.613z" />
        <glyph
          glyph-name="移动开发平台-dengchuf0a54-f"
          unicode="&#xf0a54;"
          horiz-adv-x="1024" d=" M490.667 896L490.667 810.667L170.667 810.667L170.667 213.333L490.667 213.333L490.667 128L85.333 128L85.333 896L490.667 896zM695.163 755.503L938.667 512L695.163 268.497L634.824 328.837L775.296 469.333L344.994 469.333L344.994 554.667L775.296 554.667L634.824 695.163L695.163 755.503z" />
        <glyph
          glyph-name="移动开发平台-loginoutf0af7-f"
          unicode="&#xf0af7;"
          horiz-adv-x="1024" d=" M533.333 896L533.333 810.667L853.333 810.667L853.333 213.333L533.333 213.333L533.333 128L938.667 128L938.667 896L533.333 896zM435.503 755.503L679.006 512L435.503 268.497L375.163 328.837L515.636 469.333L85.333 469.333L85.333 554.667L515.636 554.667L375.163 695.163L435.503 755.503z" />
        <glyph
          glyph-name="移动开发平台-checkbox_selectedf0c02-o"
          unicode="&#xf0c02;"
          horiz-adv-x="1024" d=" M917.333 917.333L917.333 106.667L106.667 106.667L106.667 917.333L917.333 917.333zM714.353 696.68L472.994 455.32L352.314 576L291.974 515.66L472.994 334.641L774.692 636.34L714.353 696.68z" />
        <glyph
          glyph-name="移动开发平台-checkboxf0c03-f"
          unicode="&#xf0c03;"
          horiz-adv-x="1024" d=" M917.333 917.333L106.667 917.333L106.667 106.667L917.333 106.667L917.333 917.333zM832 832L832 192L192 192L192 832L832 832z" />
        <glyph
          glyph-name="移动开发平台-feedbackf0c04-f"
          unicode="&#xf0c04;"
          horiz-adv-x="1024" d=" M841.961 576.218L907.33 521.366L523.372 63.782L458.003 118.634L841.961 576.218zM874.667 309.333L874.667 64L672 64L672 149.333L789.333 149.333L789.333 309.333L874.667 309.333zM874.667 960L874.667 714.667L789.333 714.667L789.333 874.667L234.667 874.667L234.667 149.333L352 149.333L352 64L149.333 64L149.333 960L874.667 960zM554.667 554.667L554.667 469.333L341.333 469.333L341.333 554.667L554.667 554.667zM682.667 725.333L682.667 640L341.333 640L341.333 725.333L682.667 725.333z" />
        <glyph
          glyph-name="移动开发平台-highlight_fillf0c05-f"
          unicode="&#xf0c05;"
          horiz-adv-x="1024" d=" M974.901 676.234L597.777 299.111L511.054 272.727L431.843 193.516L190.484 434.875L269.68 514.071L296.079 600.81L673.202 977.933L974.901 676.234zM854.221 676.234L673.202 857.254L371.488 555.54L345.105 468.816L311.163 434.875L431.843 314.196L465.784 348.137L552.538 374.551L854.221 676.234zM748.627 691.319L522.353 465.045L462.013 525.385L688.287 751.659L748.627 691.319zM220.654 344.366L341.333 223.686L303.621 185.974L205.569 208.601L145.229 268.941L220.654 344.366z" />
        <glyph
          glyph-name="移动开发平台-highlightf0c06-f"
          unicode="&#xf0c06;"
          horiz-adv-x="1024" d=" M899.476 664.81L582.692 348.026L495.969 321.642L416.758 242.431L175.399 483.79L254.595 562.986L280.994 649.725L597.777 966.509L899.476 664.81zM778.797 664.81L597.777 845.829L356.403 604.455L330.02 517.731L296.079 483.79L416.758 363.111L450.699 397.052L537.453 423.466L778.797 664.81zM688.287 694.98L477.098 483.79L416.758 544.13L627.947 755.319L688.287 694.98zM205.569 393.281L326.248 272.601L288.536 234.889L205.569 272.601L145.229 332.941L205.569 393.281z" />
        <glyph
          glyph-name="移动开发平台-keyboardf0c07-f"
          unicode="&#xf0c07;"
          horiz-adv-x="1024" d=" M917.333 917.333L917.333 106.667L106.667 106.667L106.667 917.333L917.333 917.333zM832 832L192 832L192 192L832 192L832 832zM533.333 725.333C588.257 725.333 639.97 704.429 679.145 667.726L684.183 662.849L623.843 602.51C599.966 626.387 567.781 640 533.333 640C462.641 640 405.333 582.692 405.333 512C405.333 441.308 462.641 384 533.333 384C565.755 384 596.171 396.059 619.544 417.384L623.843 421.49L684.183 361.151C644.461 321.429 590.645 298.667 533.333 298.667C415.513 298.667 320 394.179 320 512C320 629.821 415.513 725.333 533.333 725.333z" />
        <glyph
          glyph-name="移动开发平台-zoom_inf0c08-f"
          unicode="&#xf0c08;"
          horiz-adv-x="1024" d=" M426.667 960C626.962 960 789.333 797.629 789.333 597.333C789.333 512.568 760.253 434.595 711.524 372.846L947.503 136.837L887.163 76.497L651.154 312.476C589.405 263.747 511.432 234.667 426.667 234.667C226.371 234.667 64 397.038 64 597.333C64 797.629 226.371 960 426.667 960zM426.667 874.667C273.5 874.667 149.333 750.5 149.333 597.333C149.333 444.166 273.5 320 426.667 320C579.834 320 704 444.166 704 597.333C704 750.5 579.834 874.667 426.667 874.667zM469.333 746.667L469.333 640L576 640L576 554.667L469.333 554.667L469.333 448L384 448L384 554.667L277.333 554.667L277.333 640L384 640L384 746.667L469.333 746.667z" />
        <glyph
          glyph-name="移动开发平台-zoom_outf0c09-f"
          unicode="&#xf0c09;"
          horiz-adv-x="1024" d=" M426.667 960C626.962 960 789.333 797.629 789.333 597.333C789.333 512.568 760.253 434.595 711.524 372.846L947.503 136.837L887.163 76.497L651.154 312.476C589.405 263.747 511.432 234.667 426.667 234.667C226.371 234.667 64 397.038 64 597.333C64 797.629 226.371 960 426.667 960zM426.667 874.667C273.5 874.667 149.333 750.5 149.333 597.333C149.333 444.166 273.5 320 426.667 320C579.834 320 704 444.166 704 597.333C704 750.5 579.834 874.667 426.667 874.667zM576 640L576 554.667L277.333 554.667L277.333 640L576 640z" />
    </font>
</defs>
</svg>
